<svg fill="none" height="16" viewBox="0 0 16 16" width="16" xmlns="http://www.w3.org/2000/svg">
  <path
    d="M14.2652 13.735L11.0539 10.5237C11.9696 9.47063 12.4407 8.10312 12.3679 6.70946C12.295 5.31581 11.6838 4.00489 10.6633 3.05304C9.64269 2.10119 8.29241 1.58278 6.89706 1.60708C5.50171 1.63138 4.1703 2.1965 3.18349 3.18331C2.19668 4.17012 1.63156 5.50153 1.60726 6.89688C1.58296 8.29222 2.10137 9.6425 3.05322 10.6631C4.00507 11.6837 5.31599 12.2948 6.70965 12.3677C8.1033 12.4405 9.47081 11.9695 10.5239 11.0537L13.7352 14.265C13.8063 14.3312 13.9003 14.3673 13.9974 14.3656C14.0946 14.3639 14.1873 14.3245 14.256 14.2558C14.3247 14.1871 14.364 14.0944 14.3658 13.9972C14.3675 13.9001 14.3314 13.8061 14.2652 13.735ZM2.37517 6.99998C2.37517 6.08524 2.64642 5.19105 3.15462 4.43047C3.66282 3.66989 4.38515 3.0771 5.23025 2.72704C6.07536 2.37698 7.0053 2.28539 7.90246 2.46385C8.79962 2.64231 9.62372 3.0828 10.2705 3.72961C10.9174 4.37643 11.3578 5.20053 11.5363 6.09769C11.7148 6.99485 11.6232 7.92479 11.2731 8.76989C10.9231 9.615 10.3303 10.3373 9.56968 10.8455C8.8091 11.3537 7.9149 11.625 7.00017 11.625C5.774 11.6235 4.59847 11.1357 3.73144 10.2687C2.86441 9.40167 2.37665 8.22615 2.37517 6.99998Z"
    fill="black"/>
</svg>
